<?xml version="1.0" standalone="no"?>
<!DOCTYPE svg PUBLIC "-//W3C//DTD SVG 20010904//EN"
 "http://www.w3.org/TR/2001/REC-SVG-20010904/DTD/svg10.dtd">
<svg version="1.0" xmlns="http://www.w3.org/2000/svg"
 width="512.000000pt" height="512.000000pt" viewBox="0 0 512.000000 512.000000"
 preserveAspectRatio="xMidYMid meet">

<g transform="translate(0.000000,512.000000) scale(0.100000,-0.100000)"
fill="#000000" stroke="none">
<path d="M2415 4710 c-593 -67 -1097 -457 -1268 -981 -51 -154 -62 -231 -62
-429 0 -197 11 -273 61 -429 37 -114 115 -267 182 -357 106 -143 293 -302 469
-400 55 -30 65 -51 38 -78 -24 -23 -96 -29 -275 -22 -194 8 -246 -3 -312 -62
-142 -127 -93 -351 94 -431 80 -34 152 -43 325 -39 l165 3 24 -28 c34 -40 32
-120 -6 -273 -71 -284 -88 -510 -47 -607 62 -145 220 -211 352 -147 103 50
177 151 221 300 l22 74 43 -4 c60 -7 216 -5 265 3 l41 7 18 -65 c43 -161 134
-286 231 -319 120 -41 249 -5 310 86 67 99 69 234 9 553 -20 105 -39 229 -42
277 -6 83 -5 87 20 112 26 26 26 26 195 25 238 0 335 25 418 108 51 50 68 95
67 178 0 120 -62 208 -166 240 -33 10 -95 12 -238 9 -168 -4 -201 -2 -244 13
-80 29 -78 31 132 167 286 186 476 465 554 816 20 90 24 132 23 285 0 158 -3
194 -27 292 -66 283 -197 514 -407 717 -166 160 -335 262 -559 336 -64 21
-158 45 -210 54 -119 20 -313 27 -416 16z m443 -81 c160 -31 345 -103 476
-187 137 -88 310 -247 304 -279 -2 -9 -30 -30 -63 -47 -54 -28 -67 -42 -122
-126 -97 -148 -135 -196 -178 -224 -79 -52 -146 -29 -285 98 -145 133 -159
141 -249 141 -113 -1 -140 -17 -358 -209 -102 -89 -150 -114 -191 -97 -43 18
-60 62 -77 195 -22 177 -49 212 -158 204 -44 -4 -93 -19 -170 -52 -133 -58
-163 -64 -212 -40 -73 34 -100 159 -48 225 62 79 223 191 386 270 302 143 628
188 945 128z m-1416 -561 c67 -145 77 -153 196 -153 78 1 97 5 175 38 50 21
104 37 126 37 58 0 73 -23 82 -130 8 -99 33 -156 89 -203 98 -83 219 -54 385
94 147 130 245 165 333 120 20 -10 78 -57 129 -104 106 -97 159 -127 226 -127
98 0 167 50 270 193 109 154 158 197 238 212 33 6 39 3 66 -29 36 -44 112
-196 147 -294 50 -139 69 -262 69 -432 0 -227 -37 -379 -140 -581 -119 -235
-269 -389 -506 -519 -133 -73 -163 -108 -132 -156 41 -63 195 -98 389 -87 64
3 116 3 116 -1 0 -4 -11 -22 -24 -39 -45 -60 -59 -106 -60 -203 -1 -127 3
-124 -168 -123 -160 1 -204 -13 -248 -78 -22 -33 -25 -46 -24 -132 0 -75 8
-127 36 -241 46 -182 78 -349 78 -401 0 -38 -1 -39 -27 -32 -16 5 -60 8 -99 7
-58 -1 -84 -7 -140 -33 -38 -18 -83 -43 -101 -56 l-32 -25 -24 53 c-14 28 -34
88 -45 131 -12 43 -25 83 -30 88 -7 7 -51 7 -128 0 -81 -7 -148 -7 -212 0 -52
5 -97 6 -101 2 -5 -5 -15 -40 -24 -77 -14 -57 -64 -187 -72 -187 -1 0 -19 15
-39 34 -65 62 -203 96 -313 78 l-53 -9 0 66 c0 66 9 112 75 386 20 83 38 188
41 235 5 76 3 90 -18 130 -16 32 -36 52 -68 68 -41 21 -53 23 -125 17 -163
-15 -188 -13 -202 15 -8 15 -13 63 -13 121 0 88 -3 102 -29 153 l-30 55 152
-2 c174 -2 250 14 286 59 51 64 17 114 -128 189 -309 161 -542 466 -623 817
-30 128 -32 430 -4 558 42 191 137 400 234 513 21 24 27 22 44 -15z m-24
-2143 c30 -38 45 -117 40 -206 -6 -98 -26 -132 -81 -137 -31 -3 -43 3 -80 38
-58 53 -70 84 -65 168 4 77 27 119 80 145 48 24 83 21 106 -8z m2450 -20 c86
-98 60 -263 -50 -321 -77 -40 -103 -5 -102 135 2 190 73 277 152 186z m-1767
-1270 c49 -18 99 -60 99 -85 0 -20 -33 -52 -79 -75 -74 -37 -195 2 -241 78
-25 41 -25 52 2 77 18 16 35 20 99 20 43 0 95 -7 120 -15z m1132 4 c21 -5 41
-17 44 -25 16 -42 -68 -138 -131 -150 -83 -15 -186 24 -186 70 0 29 44 66 105
90 74 28 111 31 168 15z"/>
<path d="M3692 3985 c2 -5 24 -53 50 -105 55 -111 99 -262 124 -422 10 -62 21
-117 26 -122 4 -6 8 30 8 80 0 136 -53 329 -126 459 -30 55 -90 134 -82 110z"/>
<path d="M1356 3899 c-15 -18 -43 -63 -62 -100 -115 -230 -146 -525 -77 -746
18 -58 38 -72 30 -20 -36 207 -34 418 6 559 14 47 50 141 81 208 31 68 55 125
52 127 -2 2 -16 -11 -30 -28z"/>
<path d="M1981 3438 c-83 -23 -155 -108 -188 -218 -24 -83 -21 -213 7 -278 57
-132 183 -174 325 -108 96 44 135 130 135 296 0 119 -18 182 -67 239 -60 70
-129 93 -212 69z m127 -83 c40 -33 62 -92 69 -185 l6 -77 -37 -41 c-63 -69
-143 -80 -212 -27 -40 30 -74 92 -74 133 0 47 29 129 57 163 53 62 139 78 191
34z"/>
<path d="M3017 3436 c-112 -41 -174 -175 -164 -351 6 -111 33 -187 84 -237 47
-45 79 -58 146 -58 228 1 343 291 204 515 -42 69 -66 94 -109 116 -52 26 -115
32 -161 15z m152 -89 c52 -35 76 -95 68 -176 -11 -123 -66 -191 -155 -191 -60
0 -96 22 -121 73 -40 83 -19 248 40 301 28 25 38 28 80 24 29 -3 64 -15 88
-31z"/>
<path d="M3878 3282 c-5 -35 0 -54 13 -46 12 7 12 74 0 74 -5 0 -11 -13 -13
-28z"/>
<path d="M1245 2960 c-7 -12 21 -80 34 -80 6 0 3 19 -6 45 -16 48 -18 51 -28
35z"/>
<path d="M1583 2870 c-139 -71 -89 -255 71 -268 72 -6 154 31 191 86 41 60 27
116 -42 169 -50 39 -157 45 -220 13z"/>
<path d="M3333 2869 c-114 -56 -110 -198 7 -256 78 -40 180 -26 243 35 30 29
51 89 40 118 -13 36 -63 92 -97 108 -49 23 -141 21 -193 -5z"/>
<path d="M2215 2746 c-17 -7 -45 -29 -62 -49 -98 -111 -40 -252 147 -360 264
-152 703 19 705 275 0 67 -18 92 -94 128 -63 29 -98 23 -182 -32 -144 -94
-185 -92 -369 14 -57 34 -106 42 -145 24z"/>
<path d="M2555 2260 c-60 -9 -135 -38 -135 -52 0 -6 17 -8 43 -4 23 3 95 9
160 12 64 4 117 10 117 14 0 22 -116 40 -185 30z"/>
<path d="M2497 1948 c-80 -21 -146 -120 -147 -217 0 -104 58 -177 160 -200
164 -36 318 134 256 282 -20 49 -107 122 -160 136 -51 13 -57 13 -109 -1z
m107 -62 c69 -29 104 -121 71 -189 -48 -102 -186 -99 -237 3 -35 69 -14 133
59 177 44 27 61 28 107 9z"/>
<path d="M2475 1406 c-74 -32 -140 -147 -133 -231 9 -109 72 -175 174 -183
137 -11 238 85 239 230 0 58 -4 72 -30 109 -55 78 -167 111 -250 75z m143 -60
c37 -19 72 -84 72 -135 0 -77 -80 -137 -160 -120 -39 9 -96 64 -106 104 -19
76 49 165 127 165 22 0 52 -6 67 -14z"/>
<path d="M1941 1143 c-42 -156 -65 -363 -42 -377 6 -4 11 -3 11 2 0 4 13 89
29 188 37 226 41 264 31 264 -4 0 -17 -35 -29 -77z"/>
<path d="M3187 1039 c-12 -46 24 -249 45 -249 13 0 10 70 -8 161 -19 99 -28
122 -37 88z"/>
</g>
</svg>
